HIERARCHY
ROOT Hips
{
    OFFSET 0.0 0.0 0.0
    CHANNELS 6 Xposition Yposition Zposition Zrotation Xrotation Yrotation
    JOINT LeftHipJoint
    {
        OFFSET 0.1 0.0 0.0
        CHANNELS 3 Zrotation Xrotation Yrotation
        JOINT LeftUpLeg
        {
            OFFSET 124.95685740802028 0.0 0.0
            CHANNELS 3 Zrotation Xrotation Yrotation
            JOINT LeftLeg
            {
                OFFSET 0.0 0.0 -409.3811541076206
                CHANNELS 3 Zrotation Xrotation Yrotation
                JOINT LeftFoot
                {
                    OFFSET 0.0 0.0 -395.9674685028374
                    CHANNELS 3 Zrotation Xrotation Yrotation
                    End Site
                    {
                        OFFSET 0.0 -0.1 0.0
                    }
                }
            }
        }
    }
    JOINT LowerBack
    {
        OFFSET 0.0 0.0 0.1
        CHANNELS 3 Zrotation Xrotation Yrotation
        JOINT Spine
        {
            OFFSET 0.0 0.0 220.04839279128865
            CHANNELS 3 Zrotation Xrotation Yrotation
            JOINT Spine1
            {
                OFFSET 0.0 0.0 255.30741277496767
                CHANNELS 3 Zrotation Xrotation Yrotation
                JOINT LeftShoulder
                {
                    OFFSET 0.1 0.0 0.0
                    CHANNELS 3 Zrotation Xrotation Yrotation
                    JOINT LeftArm
                    {
                        OFFSET 148.03067493050898 0.0 0.0
                        CHANNELS 3 Zrotation Xrotation Yrotation
                        JOINT LeftForeArm
                        {
                            OFFSET 259.9290754203005 0.0 0.0
                            CHANNELS 3 Zrotation Xrotation Yrotation
                            JOINT LeftHand
                            {
                                OFFSET 239.92765079030897 0.0 0.0
                                CHANNELS 3 Zrotation Xrotation Yrotation
                                End Site
                                {
                                    OFFSET 0.1 0.0 0.0
                                }
                            }
                        }
                    }
                }
                JOINT Neck
                {
                    OFFSET 0.0 0.0 0.1
                    CHANNELS 3 Zrotation Xrotation Yrotation
                    JOINT Neck1
                    {
                        OFFSET 0.0 0.0 110.6976498490436
                        CHANNELS 3 Zrotation Xrotation Yrotation
                        End Site
                        {
                            OFFSET 0.0 0.0 119.45184782003939
                        }
                    }
                }
                JOINT RightShoulder
                {
                    OFFSET -0.1 0.0 0.0
                    CHANNELS 3 Zrotation Xrotation Yrotation
                    JOINT RightArm
                    {
                        OFFSET -148.03067493050898 0.0 0.0
                        CHANNELS 3 Zrotation Xrotation Yrotation
                        JOINT RightForeArm
                        {
                            OFFSET -259.9290754203005 0.0 0.0
                            CHANNELS 3 Zrotation Xrotation Yrotation
                            JOINT RightHand
                            {
                                OFFSET -239.92765079030897 0.0 0.0
                                CHANNELS 3 Zrotation Xrotation Yrotation
                                End Site
                                {
                                    OFFSET -0.1 0.0 0.0
                                }
                            }
                        }
                    }
                }
            }
        }
    }
    JOINT RightHipJoint
    {
        OFFSET -0.1 0.0 0.0
        CHANNELS 3 Zrotation Xrotation Yrotation
        JOINT RightUpLeg
        {
            OFFSET -124.95685740802028 0.0 0.0
            CHANNELS 3 Zrotation Xrotation Yrotation
            JOINT RightLeg
            {
                OFFSET 0.0 0.0 -409.3811541076206
                CHANNELS 3 Zrotation Xrotation Yrotation
                JOINT RightFoot
                {
                    OFFSET 0.0 0.0 -395.9674685028374
                    CHANNELS 3 Zrotation Xrotation Yrotation
                    End Site
                    {
                        OFFSET 0.0 -0.1 0.0
                    }
                }
            }
        }
    }
}
MOTION
Frames: 11
Frame Time: 0.03333333333333333
0.0 0.0 826.397924669964 26.942286589846624 -5.637538736795179 5.384511618909143 0.0 0.0 1.987846675914698e-16 0.23487132247625142 -14.135582469112569 -0.9318321546663092 -1.3679802406774273 35.96790922153458 -1.9185145250730369 0.0 0.0 -3.975693351829397e-16 0.0 0.0 1.987846675914698e-16 0.01803705515429449 -1.1218327657905691 0.5599471427944622 5.721485016955248 1.2309059223609497e-15 7.346213323258451e-16 0.0 1.5902773407317584e-15 0.0 -33.51699388633626 15.299745664236829 76.86045202618635 -19.821833541280608 -3.971337232863161e-15 4.250116932784595e-15 0.0 0.0 -1.0933156717530838e-15 0.0 1.5902773407317584e-15 0.0 -12.91088217628304 -12.710567934181386 -4.072533037574671 0.0 1.5902773407317584e-15 0.0 15.53448918121649 -52.39447159134859 -37.12201029860744 111.9114663357894 -1.0541697757483948e-14 -7.122321089246804e-15 0.0 0.0 0.0 0.0 0.0 1.987846675914698e-16 0.03845070516637059 -2.5377384600281245 -4.753412350335039 -2.1912185233434522 21.052267401177513 3.1379815373303055 0.0 0.0 -3.975693351829396e-16
0.0 0.0 826.397924669964 26.95113342350782 -5.574482249013598 5.448407719379645 0.0 -1.987846675914698e-16 0.0 0.22332044548331123 -14.124440504758617 -1.0482202173276145 -1.4221751062320735 36.037129248484554 -1.898012081461496 0.0 0.0 -7.951386703658792e-16 0.0 -1.987846675914698e-16 0.0 0.017232265636833492 -1.1272302517698862 0.520572776231038 5.624140650240915 -3.0987054351835556e-15 1.7444009654286076e-15 0.0 1.5902773407317584e-15 0.0 -35.00994776050792 15.322229441224572 77.15357034714236 -20.340776125348448 7.966849005112024e-15 6.213798725245167e-16 0.0 0.0 6.957463365701443e-16 0.0 1.5902773407317584e-15 0.0 -12.878406359839117 -12.877794828576524 -4.196023660732015 0.0 1.5902773407317584e-15 0.0 15.864234226563477 -52.31654117689805 -36.742663757181724 111.60411683640262 -5.261278434616481e-15 -3.5752848222984306e-15 0.0 0.0 0.0 0.0 -1.987846675914698e-16 0.0 0.035717742413337576 -2.493317656551908 -4.807634173674166 -2.1884936899054677 20.99824789229935 3.1462006830236353 0.0 0.0 0.0
0.0 0.0 826.397924669964 27.00040736456352 -5.4738974261572695 5.420481267290779 0.0 0.0 -5.963540027744094e-16 0.2412703287996056 -14.174610370117016 -1.0396155682570118 -1.4558651628675658 35.82832442786022 -1.920361791821307 1.1034765745125397e-32 -3.1805546814635168e-15 3.975693351829396e-16 0.0 0.0 -5.963540027744094e-16 0.019390403734191736 -1.1771001676072324 0.618968164264067 5.575481788802932 -1.1912965148932873e-15 5.800862093990055e-17 0.0 0.0 0.0 -35.75794676172041 15.203224095215441 77.2566508844375 -20.81308903543426 7.928313423073953e-15 8.497263519817727e-16 1.5902773407317584e-15 1.517280289954742e-32 1.0933156717530838e-15 0.0 0.0 0.0 -12.895122983564852 -12.893058052739264 -4.331969168359338 0.0 0.0 0.0 15.980243245938448 -52.416640120944415 -36.5962654668533 111.22551134344678 -1.9358594649674385e-15 1.4091522620621444e-14 0.0 0.0 0.0 0.0 0.0 -5.963540027744094e-16 0.03999760139282663 -2.572378769649108 -4.709247593945307 -2.175448560939081 20.987064777942233 2.9893273455786575 0.0 0.0 7.951386703658792e-16
0.0 0.0 826.397924669964 27.245252025827988 -5.50317299527643 5.568102263758641 0.0 0.0 0.0 0.2249047938603714 -14.217434380978789 -1.2649914288327728 -1.5629227687090361 35.73249692415679 -1.7825026552594216 0.0 0.0 -3.975693351829396e-16 0.0 0.0 0.0 0.01740782503945462 -1.1384775760223684 0.6087976719150519 5.4810855334964605 -1.0308047504925677e-15 -7.46706550935139e-16 0.0 0.0 0.0 -35.85179447376716 15.327311340813312 77.15208544520978 -21.284839429031763 -3.713227359631948e-15 2.53846385423148e-15 0.0 0.0 -3.0811623476677826e-15 0.0 0.0 0.0 -13.013778566393235 -12.872091583701682 -4.450657442368452 0.0 0.0 0.0 15.815495034105206 -52.33913368530867 -36.50408663650339 111.0406461641708 3.601112301723974e-15 -5.243634475961329e-15 0.0 0.0 0.0 0.0 0.0 0.0 0.03492956206480852 -2.4431131932566656 -4.9198911836990415 -2.2209508230136614 20.90233610838117 3.0348312898317964 0.0 0.0 -7.951386703658792e-16
0.0 0.0 826.397924669964 27.29379377022051 -5.578689594713136 5.562825987199214 0.0 0.0 0.0 0.19850108399440372 -13.946999799941718 -1.2627021550888708 -1.493567184364883 35.71367785257336 -1.886105651585193 0.0 0.0 0.0 0.0 0.0 0.0 0.015430314157924955 -1.1228881478554336 0.6511424185288197 5.409775173248702 -1.1913791534266428e-15 5.628587105710995e-17 0.0 0.0 0.0 -36.258051266461564 15.220566522385512 77.10156599208145 -21.547603664611646 -2.6801364972909282e-15 -1.1436977303746499e-14 0.0 0.0 6.957463365701443e-16 0.0 0.0 0.0 -12.948465079367745 -12.876344048245146 -4.578952798570965 0.0 0.0 0.0 15.988625954847478 -52.21601665779006 -36.317453172975334 110.50198061603984 1.450288562330566e-14 -2.0906594792820792e-14 0.0 0.0 0.0 0.0 0.0 0.0 0.028317442743238438 -2.2404113347694294 -4.85807563504227 -2.1816031592916505 21.068237262844377 2.8732925534517424 0.0 0.0 3.975693351829396e-16
0.0 0.0 826.397924669964 27.35229435739127 -5.405301921787551 5.738698891443034 0.0 0.0 0.0 0.15090600212942815 -13.95543495587473 -1.509822600310153 -1.5268921151085657 35.6756389155224 -1.8964185052310638 0.0 0.0 0.0 0.0 0.0 0.0 0.012937410282093205 -1.245260353890907 0.5013227637706699 5.337520824930817 1.9486675783495076e-15 -8.868340211932544e-16 0.0 0.0 0.0 -37.03218734346503 15.338985824979064 77.10725553736975 -21.96396929468629 -3.311652328016232e-15 3.6982501519021645e-16 1.5902773407317582e-15 -7.034663162517441e-32 -5.069009023582479e-15 0.0 0.0 0.0 -12.892077266574253 -12.971483136693001 -4.5939978459500255 0.0 0.0 0.0 16.09964064003046 -51.97178343447218 -36.09531519875571 109.90787421883874 -2.0977600402525534e-15 1.4068331971101249e-14 0.0 0.0 0.0 0.0 0.0 0.0 0.020341226408434533 -2.1972697906932135 -5.101572996007527 -2.195124237783157 21.01187158978714 2.829370218732432 0.0 0.0 -3.975693351829396e-16
0.0 0.0 826.397924669964 27.288022179901084 -5.329941591918877 5.857132405815275 0.0 0.0 0.0 0.09849054991981825 -13.862748260533955 -1.6049050058980816 -1.4378895343798102 35.62203647585288 -1.9649287812282603 0.0 0.0 -3.975693351829396e-16 0.0 0.0 0.0 0.009108488001058361 -1.3489933792706372 0.3038788324979473 5.2540950099142805 8.125254322421585e-16 3.6070667217105383e-16 0.0 0.0 0.0 -37.889635752308635 15.341512346539751 77.19126369914949 -22.549723589619116 1.0290288478358088e-14 -2.8132106128390147e-15 1.590277340731758e-15 -1.020715831424099e-31 -7.35503270088438e-15 0.0 0.0 0.0 -12.717126625390922 -12.987417097314005 -4.676377491206288 0.0 0.0 0.0 16.649998091371838 -51.718859764825616 -35.49566990883252 108.90015194493822 2.221394746138024e-15 -1.4049340447772635e-14 -4.472655020808071e-16 -2.4828222926532145e-32 6.3611093629270335e-15 0.0 0.0 0.0 0.011904709913953454 -2.1378978854406814 -5.199834579172189 -2.170171578694132 21.170513308468546 2.725032278491093 0.0 0.0 -3.975693351829396e-16
0.0 0.0 826.397924669964 27.364854558254617 -5.136064788794684 6.003673687352643 -1.034509288605506e-33 -1.9878466759146977e-16 -5.963540027744093e-16 0.05029316736716007 -13.822478949045188 -1.823619532074184 -1.4397998336840687 35.41430209513954 -1.8809406098130426 0.0 -3.1805546814635168e-15 0.0 -1.034509288605506e-33 -1.9878466759146977e-16 -5.963540027744093e-16 0.005247798896725983 -1.5649869710367192 0.18402429624180108 5.201522732892789 5.957397384141384e-16 -2.7060315950007113e-17 0.0 0.0 0.0 -37.820210653443716 15.495899218017863 77.03073091394168 -23.10224773516912 5.748942861804623e-15 -4.303159302458997e-15 1.590277340731758e-15 -1.3241718894150476e-31 -9.541664044390547e-15 0.0 0.0 0.0 -12.914997041444332 -12.877018737050323 -4.644864809234861 0.0 0.0 0.0 16.984490018752314 -51.606122032149834 -34.88024850808807 107.87901565298597 0.0 0.0 -9.93923337957349e-17 -3.975693351829396e-16 -3.4483642953516864e-34 -1.034509288605506e-33 -1.9878466759146977e-16 -5.963540027744093e-16 0.005292459983059332 -2.3372421460191926 -5.408766686367458 -2.185997398602082 21.261717340885482 2.6467700529520077 0.0 0.0 3.975693351829396e-16
0.0 0.0 826.397924669964 27.544288773354754 -4.9824886782837465 6.082493724950064 0.0 0.0 0.0 0.030176035136979865 -13.866391844309792 -1.963794309899449 -1.4783366006389653 35.39300506420969 -1.8003163177959907 2.2069531490250793e-32 -3.1805546814635164e-15 7.951386703658791e-16 0.0 0.0 0.0 0.0034191908324714697 -1.7791008624537807 0.06413717694733545 5.168468699545649 9.749868832097887e-16 -4.4197913478233956e-16 0.0 0.0 0.0 -37.105960885526656 15.630472657074819 76.92196039015731 -23.545817532720665 -9.890028434597114e-16 -3.0489117458014264e-15 0.0 0.0 7.951386703658792e-16 0.0 0.0 0.0 -13.072938117751033 -12.6451531458652 -4.497159919233435 0.0 0.0 0.0 17.334437673115076 -51.48997872143709 -34.29364117089578 106.83298931004897 3.791181298175683e-15 -5.107901397979499e-15 1.987846675914698e-16 0.0 0.0 0.0 0.0 0.0 0.002220620875676113 -2.4662305546363887 -5.506069258033311 -2.2011213749993876 21.342267512099 2.6175883076064395 0.0 0.0 7.951386703658792e-16
0.0 0.0 826.397924669964 27.616263446816976 -4.844841500917335 6.080232478187607 -6.896728590703373e-33 -7.951386703658791e-16 -9.939233379573488e-16 0.012430486057629463 -13.928102608496852 -2.011973196678296 -1.4548444916060528 35.29528125027155 -1.6960916909234558 0.0 0.0 3.975693351829396e-16 -6.896728590703373e-33 -7.951386703658791e-16 -9.939233379573488e-16 0.0012964864964810383 -1.9315768087576577 0.008933040987866828 5.141779827556335 2.166597326597097e-15 -4.952514846658251e-16 6.896728590703373e-34 1.987846675914698e-16 -3.975693351829396e-16 -36.98765254289506 15.650185959216254 76.89769349174631 -23.865868300548076 2.178407660248916e-15 -1.0307916450808917e-14 0.0 0.0 1.7890620083232284e-15 6.896728590703373e-34 1.987846675914698e-16 -3.975693351829396e-16 -13.06930841365363 -12.5224884763038 -4.387264999199784 6.896728590703373e-34 1.987846675914698e-16 -3.975693351829396e-16 17.7791754287969 -51.42616297475098 -33.62710957355776 105.80814864771526 1.6583925007654204e-14 -1.138466313123411e-14 3.975693351829396e-16 0.0 0.0 -6.896728590703373e-33 -7.951386703658791e-16 -9.939233379573488e-16 -0.0006536372206030093 -2.6320637974521257 -5.542391176579245 -2.2197010622075175 21.63052508809456 2.6343046707444193 0.0 0.0 0.0
0.0 0.0 826.397924669964 27.605239035359467 -4.7362770113760755 6.131651784163658 0.0 0.0 0.0 0.0013727008752387098 -13.927136430633146 -2.1109156563898663 -1.482994936994325 35.12100516347032 -1.6146815417851699 0.0 0.0 3.975693351829396e-16 0.0 0.0 0.0 -0.0002134274135168788 -2.068442302943393 -0.05134901758644471 5.031031089838587 5.608807630188963e-16 -8.205463858988227e-16 0.0 0.0 0.0 -36.56781113739132 15.64027753680839 76.82531613551873 -24.132078932565616 2.6417841486669577e-15 -1.9966120889766445e-14 1.5902773407317584e-15 -5.517382872562698e-33 -3.975693351829396e-16 0.0 0.0 0.0 -13.089179007393575 -12.478239455867243 -4.3913789791618765 0.0 0.0 0.0 18.24298932154694 -51.212572127089835 -33.15718953149635 105.15302692026845 5.051774105653538e-15 3.865655275961164e-15 3.975693351829396e-16 0.0 0.0 0.0 0.0 0.0 -0.0026497791392828115 -2.7475518555300127 -5.644015146307052 -2.234567927601327 21.55996727367797 2.6992034050928355 0.0 0.0 3.975693351829396e-16
